<svg xmlns="http://www.w3.org/2000/svg" width="1000" height="455" viewBox="0 0 1000 455" version="1.1"><path d="M 847 201.631 L 847 215.349 844.750 213.236 C 838.856 207.704, 828.412 205.617, 819.616 208.216 C 813.877 209.912, 805.838 218.092, 803.676 224.437 C 801.598 230.536, 801.517 241.009, 803.495 247.672 C 805.331 253.854, 811.906 261.598, 817.461 264.122 C 822.509 266.414, 832.682 266.577, 837.782 264.447 C 839.827 263.593, 842.737 261.709, 844.250 260.260 L 847 257.626 847 261.313 L 847 265 854.512 265 L 862.024 265 861.762 226.750 L 861.500 188.500 854.250 188.206 L 847 187.912 847 201.631 M 377.667 193.667 C 377.300 194.033, 377 197.408, 377 201.167 L 377 208 374 208 L 371 208 371 214 L 371 220 374 220 L 377 220 377.024 234.250 C 377.052 250.191, 378.091 256.396, 381.311 259.845 C 385.102 263.907, 388.419 265, 396.950 265 L 405 265 405 259 L 405 253 399.535 253 C 395.156 253, 393.865 252.616, 393.035 251.066 C 392.458 249.986, 392 242.694, 392 234.566 L 392 220 398.500 220 L 405 220 405 214 L 405 208 398.500 208 L 392 208 392 200.500 L 392 193 385.167 193 C 381.408 193, 378.033 193.300, 377.667 193.667 M 592 200.500 L 592 208 588.500 208 L 585 208 585 214 L 585 220 588.500 220 L 592 220 592.002 236.750 C 592.003 250.721, 592.293 254.069, 593.752 256.929 C 596.799 262.906, 599.991 264.455, 610.072 264.849 L 619 265.199 619 259.152 L 619 253.105 613.774 252.802 C 606.574 252.386, 606.033 251.057, 606.015 233.750 L 606 220 612.500 220 L 619 220 619 214.048 L 619 208.095 612.750 207.798 L 606.500 207.500 606.206 200.250 L 605.912 193 598.956 193 L 592 193 592 200.500 M 328.544 208.589 C 320.935 211.375, 317 216.926, 317 224.874 C 317 233.446, 322.020 237.588, 337.711 241.965 C 342.226 243.225, 346.667 245.080, 347.579 246.087 C 351.548 250.473, 345.739 255.868, 338.340 254.668 C 334.545 254.052, 330 250.596, 330 248.326 C 330 247.343, 328.062 247, 322.500 247 C 318.011 247, 315 247.414, 315 248.032 C 315 250.091, 318.147 256.529, 320.298 258.869 C 324.296 263.219, 331.747 265.980, 339.500 265.985 C 343.350 265.987, 348.290 265.492, 350.477 264.885 C 355.742 263.423, 361.634 257.466, 362.528 252.701 C 364.384 242.807, 359.535 236.356, 347.690 232.960 C 334.224 229.100, 331.535 227.749, 331.178 224.662 C 331.001 223.131, 331.383 221.243, 332.028 220.466 C 335.324 216.495, 346.104 218.512, 347.982 223.452 C 348.883 225.823, 349.403 226, 355.475 226 C 361.802 226, 362 225.923, 362 223.450 C 362 217.670, 355.127 209.962, 348.277 208.060 C 343.021 206.600, 333.262 206.862, 328.544 208.589 M 440 208.592 C 438.075 209.424, 435.038 211.520, 433.250 213.249 L 430 216.392 430 212.196 L 430 208 423 208 L 416 208 416 236.500 L 416 265 423 265 L 430 265 430.002 248.750 C 430.003 235.283, 430.303 231.901, 431.752 229 C 433.813 224.873, 438.938 222.004, 444.250 222.002 L 448 222 448 214.500 C 448 207.377, 447.887 207.002, 445.750 207.039 C 444.512 207.061, 441.925 207.759, 440 208.592 M 541.882 208.381 C 532.804 211.625, 527.156 217.509, 524.431 226.562 C 520.213 240.579, 525.483 256.085, 536.708 262.683 C 541.107 265.269, 542.327 265.500, 551.574 265.500 C 561.039 265.500, 561.947 265.317, 566.574 262.471 C 571.668 259.338, 578 251.256, 578 247.887 C 578 246.214, 577.191 246, 570.856 246 C 563.844 246, 563.652 246.069, 560.470 249.750 C 557.453 253.241, 556.847 253.500, 551.695 253.500 C 547.181 253.500, 545.662 253.039, 543.452 251 C 539.693 247.532, 538 243.029, 538 236.500 C 538 226.754, 542.413 220.291, 549.739 219.308 C 554.363 218.688, 559.166 220.798, 561.606 224.521 C 563.092 226.789, 563.858 227, 570.615 227 C 577.066 227, 578 226.772, 578 225.196 C 578 222.510, 572.673 214.616, 569.185 212.132 C 562.252 207.195, 549.935 205.503, 541.882 208.381 M 722.500 208.881 C 720.300 209.891, 717.643 211.681, 716.595 212.859 C 713.910 215.876, 713 215.532, 713 211.500 L 713 208 706 208 L 699 208 699 236.500 L 699 265 705.885 265 L 712.769 265 713.228 248.250 C 713.481 239.037, 714.188 230.286, 714.799 228.802 C 716.330 225.086, 719.822 223.045, 725.874 222.329 L 731 221.721 731 214.361 C 731 207.388, 730.882 207.001, 728.750 207.022 C 727.513 207.034, 724.700 207.870, 722.500 208.881 M 754.572 208.958 C 743.643 213.358, 737.666 223.085, 737.649 236.500 C 737.626 254.395, 748.604 265.967, 765.624 265.990 C 777.214 266.006, 784.530 262.445, 790.059 254.097 C 794.438 247.486, 794.151 247, 785.871 247 C 779.129 247, 778.533 247.190, 774.868 250.500 C 771.585 253.466, 770.271 253.999, 766.247 253.996 C 760.340 253.992, 755.903 251.424, 753.670 246.717 C 752.751 244.781, 752 242.712, 752 242.119 C 752 241.389, 758.880 240.952, 773.250 240.770 L 794.500 240.500 794.815 237.223 C 795.805 226.936, 789.947 215.593, 781.089 210.646 C 773.907 206.636, 762.192 205.890, 754.572 208.958 M 457.163 228.750 L 457.500 249.500 460.615 255 C 464.673 262.164, 471.418 266.011, 479.864 265.978 C 485.752 265.955, 492.455 263.579, 494.872 260.658 C 496.922 258.181, 498 258.644, 498 262 L 498 265 505 265 L 512 265 512 236.500 L 512 208 505.095 208 L 498.191 208 497.824 226.250 C 497.519 241.426, 497.155 245.061, 495.662 247.829 C 491.946 254.719, 481.428 255.887, 475.593 250.057 L 472.500 246.966 472.191 227.483 L 471.881 208 464.353 208 L 456.825 208 457.163 228.750 M 629.205 228.250 C 629.677 250.238, 630.391 253.604, 635.803 259.376 C 643.318 267.390, 657.378 268.269, 666.750 261.311 L 670 258.898 670 261.949 L 670 265 677 265 L 684 265 684 236.500 L 684 208 677.078 208 L 670.156 208 669.828 226.930 C 669.454 248.532, 668.885 250.240, 661.159 252.969 C 657.501 254.261, 656.499 254.261, 652.841 252.969 C 645.110 250.239, 644.544 248.535, 644.189 226.930 L 643.879 208 636.324 208 L 628.770 208 629.205 228.250 M 758.667 220.615 C 757.087 221.472, 755.008 223.996, 753.964 226.325 L 752.094 230.500 765.684 230.779 C 773.159 230.933, 779.465 230.869, 779.696 230.637 C 780.830 229.504, 776.727 222.804, 773.810 221.026 C 769.835 218.602, 762.737 218.410, 758.667 220.615 M 826 220.706 C 823.668 221.559, 819.954 225.223, 818.405 228.200 C 816.134 232.565, 816.586 242.097, 819.250 246.010 C 822.912 251.390, 826.360 253.385, 832 253.385 C 840.737 253.385, 846.200 247.596, 846.763 237.739 C 847.184 230.383, 845.175 225.782, 840.001 222.250 C 836.795 220.062, 829.856 219.297, 826 220.706" stroke="none" fill="#ffffff" fill-rule="evenodd"/><path d="M 186 252.742 C 159.875 278.394, 138.340 299.775, 138.146 300.255 C 137.669 301.427, 140.230 303.269, 148 307.344 C 161.299 314.318, 173.283 317.095, 190 317.078 C 204.311 317.064, 213.865 314.810, 226.978 308.353 C 248.084 297.962, 261.929 277.221, 261.985 255.910 C 262.005 248.415, 258.785 236.262, 254.775 228.691 C 251.612 222.723, 236.587 205.945, 234.499 206.051 C 233.950 206.079, 212.125 227.090, 186 252.742" stroke="none" fill="#fed84e" fill-rule="evenodd"/><path d="M 202 138.168 C 193.538 139.367, 180.466 143.897, 173.239 148.135 C 170.082 149.986, 164.023 154.923, 159.773 159.106 C 145.636 173.021, 139.794 190.383, 143.280 208.116 C 146.136 222.641, 154.843 237.164, 165.987 245.990 L 169.948 249.127 217.724 202.314 C 244.001 176.566, 265.639 154.973, 265.808 154.329 C 266.297 152.471, 253.344 145.382, 243.500 142.121 C 229.093 137.348, 216.352 136.134, 202 138.168 M 846.196 200.872 C 846.012 212.491, 845.893 213.162, 844.250 211.890 C 842.955 210.887, 843.020 211.144, 844.500 212.880 L 846.500 215.225 846.796 208.612 C 846.958 204.976, 846.934 198.963, 846.742 195.250 C 846.530 191.162, 846.314 193.380, 846.196 200.872 M 392.199 200.250 L 392 208 398.452 208 L 404.905 208 405.287 214.250 L 405.669 220.500 405.584 214 L 405.500 207.500 399.293 207.203 L 393.086 206.907 392.742 199.703 L 392.397 192.500 392.199 200.250 M 591 199.937 L 591 206.873 587.750 207.187 L 584.500 207.500 584.429 213.500 L 584.357 219.500 584.726 213.750 L 585.095 208 588.548 208 L 592 208 592 200.500 C 592 196.375, 591.775 193, 591.500 193 C 591.225 193, 591 196.121, 591 199.937 M 606.424 200 L 606.500 207.500 612.703 207.797 L 618.907 208.093 619.261 214.297 L 619.615 220.500 619.807 213.750 L 620 207 613.544 207 L 607.088 207 606.718 199.750 L 606.349 192.500 606.424 200 M 729.250 206.631 C 730.712 207.062, 731 208.361, 731 214.513 L 731 221.879 727.250 222.309 L 723.500 222.738 727.500 222.619 L 731.500 222.500 731.500 214.514 C 731.500 207.263, 731.316 206.508, 729.500 206.321 C 727.946 206.161, 727.890 206.230, 729.250 206.631 M 370.193 213.750 L 370.385 220.500 370.739 214.310 C 371.089 208.183, 371.125 208.116, 374.296 207.720 C 377.394 207.333, 377.376 207.315, 373.750 207.160 L 370 207 370.193 213.750 M 415 236.458 L 415 266 423 266 L 431 266 430.776 248.750 L 430.552 231.500 430.252 248.250 L 429.952 265 422.976 265 L 416 265 416 236.500 L 416 208 423 208 L 430 208 430 212.196 L 430 216.392 433.250 213.328 C 435.038 211.642, 437.400 209.768, 438.500 209.162 C 439.600 208.556, 439.953 208.047, 439.285 208.030 C 438.616 208.014, 436.509 209.370, 434.602 211.045 L 431.133 214.090 430.817 210.795 L 430.500 207.500 422.750 207.208 L 415 206.916 415 236.458 M 460.776 207.733 C 463.128 207.945, 466.728 207.942, 468.776 207.727 C 470.824 207.512, 468.900 207.339, 464.500 207.343 C 460.100 207.346, 458.424 207.522, 460.776 207.733 M 497.224 224.250 L 497.448 241.500 497.748 224.750 L 498.048 208 505.024 208 L 512 208 512 236.500 L 512 265 505 265 L 498 265 498 262 C 498 258.420, 496.981 258.208, 494.405 261.250 L 492.500 263.500 494.750 261.595 L 497 259.690 497 262.845 L 497 266 505 266 L 513 266 513 236.500 L 513 207 505 207 L 497 207 497.224 224.250 M 636.474 207.724 L 643.955 208.083 644.261 225.792 L 644.568 243.500 644.534 225.500 L 644.500 207.500 636.747 207.432 L 628.993 207.365 636.474 207.724 M 669.443 208.287 C 669.172 208.994, 669.085 217.207, 669.251 226.537 L 669.552 243.500 669.776 225.750 L 670 208 677 208 L 684 208 684 236.500 L 684 265 677.063 265 L 670.127 265 669.723 261.750 C 669.326 258.550, 669.318 258.558, 669.160 262.250 L 669 266 677 266 L 685 266 685 236.500 L 685 207 677.469 207 C 672.251 207, 669.786 207.395, 669.443 208.287 M 698.667 207.667 C 698.300 208.033, 698 221.308, 698 237.167 L 698 266 706 266 L 714 266 713.779 250.750 L 713.558 235.500 713.252 250.250 L 712.947 265 705.973 265 L 699 265 699 236.500 L 699 208 706 208 L 713 208 713 211.500 C 713 215.719, 713.876 215.880, 717.076 212.250 L 719.500 209.500 716.750 211.924 L 714 214.349 714 210.674 L 714 207 706.667 207 C 702.633 207, 699.033 207.300, 698.667 207.667 M 448.328 214.500 C 448.333 218.350, 448.513 219.802, 448.730 217.728 C 448.946 215.653, 448.943 212.503, 448.722 210.728 C 448.501 208.952, 448.324 210.650, 448.328 214.500 M 392.402 235 C 392.402 243.525, 392.556 247.012, 392.743 242.750 C 392.931 238.488, 392.931 231.512, 392.743 227.250 C 392.556 222.988, 392.402 226.475, 392.402 235 M 591.407 236 C 591.407 245.075, 591.559 248.787, 591.744 244.250 C 591.929 239.713, 591.929 232.287, 591.744 227.750 C 591.559 223.213, 591.407 226.925, 591.407 236 M 606.397 234 C 606.397 241.975, 606.553 245.238, 606.743 241.250 C 606.932 237.262, 606.932 230.738, 606.743 226.750 C 606.553 222.762, 606.397 226.025, 606.397 234 M 578 225.576 C 578 226.906, 576.762 227.101, 570.092 226.826 C 565.743 226.647, 562.394 226.838, 562.651 227.250 C 562.908 227.662, 566.691 228, 571.059 228 C 578.333 228, 579 227.832, 579 226 C 579 224.900, 578.775 224, 578.500 224 C 578.225 224, 578 224.709, 578 225.576 M 801.310 236.500 C 801.315 239.800, 801.502 241.029, 801.725 239.232 C 801.947 237.435, 801.943 234.735, 801.715 233.232 C 801.486 231.729, 801.304 233.200, 801.310 236.500 M 773.250 240.749 C 753.848 241.014, 752.007 241.190, 752.079 242.770 C 752.127 243.814, 752.358 244.004, 752.662 243.250 C 753.043 242.307, 758.174 242, 773.524 242 C 786.017 242, 794.121 241.614, 794.500 241 C 794.840 240.450, 794.979 240.103, 794.809 240.229 C 794.639 240.355, 784.938 240.589, 773.250 240.749 M 562.676 245.709 C 562.406 246.144, 565.703 246.354, 570.005 246.177 C 575.832 245.936, 577.936 246.190, 578.259 247.177 C 578.551 248.069, 578.658 248.011, 578.585 247 C 578.502 245.834, 576.773 245.435, 570.823 245.209 C 566.613 245.050, 562.947 245.275, 562.676 245.709 M 405.185 258.708 L 405 264.916 397.250 265.257 L 389.500 265.598 397.281 265.799 C 406.213 266.030, 406.299 265.949, 405.742 257.881 L 405.370 252.500 405.185 258.708 M 619 258.958 L 619 264.916 611.250 265.257 L 603.500 265.598 611.750 265.799 L 620 266 620 259.500 C 620 255.925, 619.775 253, 619.500 253 C 619.225 253, 619 255.681, 619 258.958 M 844 260.650 C 842.059 262.852, 841.986 263.077, 843.675 261.656 C 845.824 259.848, 845.854 259.860, 846.175 262.663 L 846.500 265.500 854.253 265.568 L 862.007 265.635 854.561 265.277 L 847.116 264.918 846.808 261.366 L 846.500 257.814 844 260.650 M 336.728 266.722 C 338.503 266.943, 341.653 266.946, 343.728 266.730 C 345.802 266.513, 344.350 266.333, 340.500 266.328 C 336.650 266.324, 334.952 266.501, 336.728 266.722 M 548.750 266.723 C 550.538 266.945, 553.462 266.945, 555.250 266.723 C 557.038 266.502, 555.575 266.320, 552 266.320 C 548.425 266.320, 546.962 266.502, 548.750 266.723 M 762.750 266.723 C 764.538 266.945, 767.462 266.945, 769.250 266.723 C 771.038 266.502, 769.575 266.320, 766 266.320 C 762.425 266.320, 760.962 266.502, 762.750 266.723" stroke="none" fill="#fb940c" fill-rule="evenodd"/><path d="" stroke="none" fill="#fbf2c8" fill-rule="evenodd"/></svg>