<svg xmlns="http://www.w3.org/2000/svg" width="1628" height="413" viewBox="0 0 1628 413" version="1.1"><path d="M 1536 150.500 C 1536 166.175, 1535.709 179, 1535.354 179 C 1534.998 179, 1532.514 176.949, 1529.834 174.441 C 1519.103 164.403, 1502.484 159.502, 1486.889 161.775 C 1466.093 164.806, 1450.020 178.934, 1442.833 200.500 C 1440.778 206.666, 1440.500 209.406, 1440.500 223.500 C 1440.500 237.701, 1440.767 240.287, 1442.871 246.500 C 1447.575 260.384, 1455.613 271.199, 1466.428 278.195 C 1475.099 283.804, 1483.536 286.156, 1495 286.159 C 1510.309 286.163, 1521.223 281.814, 1530.324 272.084 C 1532.940 269.288, 1535.287 267, 1535.540 267 C 1535.793 267, 1536 271.050, 1536 276 L 1536 285 1551 285 L 1566 285 1566 203.500 L 1566 122 1551 122 L 1536 122 1536 150.500 M 541 148 L 541 163 534 163 L 527 163 527 175.500 L 527 188 534 188 L 541 188 541.020 218.250 C 541.043 253.195, 541.654 259.046, 546.207 267.919 C 552.344 279.881, 561.044 283.716, 584.250 284.691 L 599 285.311 599 272.244 L 599 259.177 587.911 258.838 C 577.188 258.511, 576.743 258.408, 574.411 255.694 L 572 252.888 572 220.444 L 572 188 585.500 188 L 599 188 599 175.500 L 599 163 585.500 163 L 572 163 572 148 L 572 133 556.500 133 L 541 133 541 148 M 995 148 L 995 163 988 163 L 981 163 981 175.500 L 981 188 987.922 188 L 994.843 188 995.209 223.250 C 995.555 256.732, 995.684 258.776, 997.767 264 C 1003.893 279.367, 1016.296 284.968, 1044.250 284.992 L 1053 285 1053 272.088 L 1053 259.177 1041.911 258.838 C 1031.188 258.511, 1030.743 258.408, 1028.411 255.694 L 1026 252.888 1026 220.444 L 1026 188 1039.500 188 L 1053 188 1053 175.500 L 1053 163 1039.500 163 L 1026 163 1026 148 L 1026 133 1010.500 133 L 995 133 995 148 M 447.581 162.059 C 435.545 164.074, 424.691 170.321, 418.567 178.756 C 408.883 192.094, 410.986 211.409, 423.171 221.041 C 429.825 226.301, 434.687 228.330, 453.024 233.500 C 477.910 240.517, 481 242.406, 481 250.604 C 481 267.042, 446.383 266.810, 440.946 250.335 L 439.845 247 424.791 247 L 409.737 247 410.282 251.062 C 411.700 261.639, 421.642 274.088, 433.226 279.790 C 442.977 284.591, 450.081 286.129, 462.500 286.129 C 479.510 286.129, 491.838 282.005, 500.391 273.452 C 507.521 266.321, 509.500 261.227, 509.500 250 C 509.500 241.335, 509.239 240.028, 506.529 235.136 C 500.612 224.454, 492.500 219.933, 466.610 212.894 C 446.588 207.450, 442 204.404, 442 196.554 C 442 191.753, 444.380 188.575, 449.610 186.390 C 453.537 184.749, 462.952 184.581, 468.269 186.058 C 473.211 187.430, 478.723 193.007, 479.563 197.485 L 480.223 201 494.725 201 L 509.227 201 508.572 196.250 C 507.559 188.904, 501.691 177.778, 496.349 173.076 C 485.036 163.118, 466.400 158.908, 447.581 162.059 M 681 162.098 C 672.802 163.699, 664.568 168.573, 658.057 175.679 L 652 182.289 652 172.645 L 652 163 637 163 L 622 163 622 224 L 622 285 636.923 285 L 651.845 285 652.226 249.250 C 652.550 218.816, 652.856 212.858, 654.282 209.184 C 656.933 202.356, 659.632 199.327, 665.718 196.349 C 670.358 194.079, 673.078 193.502, 680.694 193.168 L 690 192.761 690 176.881 C 690 158.859, 690.806 160.183, 681 162.098 M 895 162.491 C 880.243 165.829, 865.603 176.214, 858.505 188.380 C 846.227 209.423, 846.700 241.420, 859.576 260.813 C 867.329 272.489, 879.289 280.969, 892.990 284.504 C 901.300 286.649, 918.298 286.657, 926.500 284.520 C 945.002 279.700, 958.901 266.704, 965.472 248.079 L 966.911 244 950.469 244 L 934.027 244 932.633 247.336 C 930.771 251.791, 924.630 257.620, 920.139 259.193 C 918.137 259.894, 913.125 260.459, 909 260.448 C 902.596 260.430, 900.707 259.994, 896.077 257.464 C 887.141 252.580, 881.809 242.986, 880.468 229.375 C 879.653 221.100, 881.250 209.488, 884.089 203.055 C 886.620 197.320, 892.310 191.315, 897.500 188.903 C 902.159 186.738, 913.136 186.361, 919.142 188.161 C 924.320 189.712, 930.201 194.902, 932.462 199.915 L 934.304 204 950.558 204 L 966.813 204 966.292 201.750 C 966.006 200.512, 963.998 195.763, 961.831 191.195 C 955.376 177.594, 944.071 168.070, 929 163.536 C 921.234 161.200, 903.161 160.645, 895 162.491 M 1280 162.393 C 1270.020 164.615, 1260.342 171.040, 1254.231 179.500 L 1252.063 182.500 1252.032 172.750 L 1252 163 1237 163 L 1222 163 1222 224 L 1222 285 1236.933 285 L 1251.866 285 1252.183 248.750 L 1252.500 212.500 1255.500 206.500 C 1260.189 197.121, 1268.487 193, 1282.682 193 L 1290 193 1290 177 C 1290 158.697, 1290.872 159.971, 1280 162.393 M 1349.072 162.553 C 1327.600 167.210, 1311.331 183.060, 1305.418 205.085 C 1303.038 213.952, 1303.029 233.209, 1305.401 242 C 1308.466 253.359, 1312.763 260.839, 1320.960 269.086 C 1333.036 281.236, 1345.258 286.082, 1364 286.153 C 1382.024 286.221, 1394.507 281.525, 1406.128 270.306 C 1412.157 264.486, 1417.119 257.077, 1419.916 249.722 L 1420.950 247 1404.668 247 L 1388.385 247 1385.243 251.458 C 1380.538 258.133, 1373.564 261.392, 1364 261.386 C 1350.508 261.377, 1339.514 253.843, 1335.683 241.980 C 1332.473 232.042, 1327.915 233, 1378.393 233 C 1417.951 233, 1422.852 232.828, 1423.393 231.418 C 1423.727 230.548, 1424 226.025, 1424 221.366 C 1424 196.663, 1413.148 177.648, 1393.500 167.923 C 1380.108 161.295, 1363.903 159.337, 1349.072 162.553 M 710.239 204.750 C 710.665 249.997, 710.734 250.610, 716.696 262.383 C 729.589 287.844, 768.603 294.149, 790.102 274.245 L 796 268.785 796 276.892 L 796 285 811 285 L 826 285 826 224 L 826 163 811.064 163 L 796.128 163 795.814 201.250 C 795.504 238.989, 795.468 239.570, 793.137 244.727 C 790.337 250.920, 783.875 257.213, 778.416 259.062 C 773.206 260.827, 761.395 260.665, 756.927 258.768 C 752.020 256.683, 746.262 251.433, 743.982 246.965 C 740.727 240.584, 740.015 231.594, 740.008 196.750 L 740 163 724.923 163 L 709.846 163 710.239 204.750 M 1075.228 205.750 C 1075.561 247.015, 1075.650 248.706, 1077.791 254.420 C 1085.452 274.866, 1101.392 286, 1123 286 C 1135.592 286, 1149.592 280.515, 1156.492 272.878 L 1160 268.994 1160 276.997 L 1160 285 1175.500 285 L 1191 285 1191 224 L 1191 163 1175.500 163 L 1160 163 1160 200.318 C 1160 243.852, 1159.783 245.313, 1152.171 252.924 C 1146.672 258.423, 1140.750 260.513, 1131.160 260.340 C 1118.601 260.113, 1108.678 252.049, 1106.086 239.967 C 1105.419 236.854, 1105 221.048, 1105 198.951 L 1105 163 1089.941 163 L 1074.883 163 1075.228 205.750 M 1352.885 187.321 C 1344.589 190.420, 1338.118 197.497, 1335.490 206.345 C 1334.671 209.105, 1334 211.731, 1334 212.182 C 1334 212.632, 1347.275 213, 1363.500 213 C 1396.919 213, 1394.322 213.794, 1391.529 204.432 C 1389.606 197.985, 1385.472 193.120, 1378.856 189.515 C 1374.352 187.061, 1372.147 186.547, 1365 186.284 C 1359.579 186.085, 1355.190 186.461, 1352.885 187.321 M 1496.723 188.028 C 1487.917 189.528, 1478.700 196.787, 1474.065 205.872 C 1467.150 219.427, 1470.367 240.121, 1481.032 250.680 C 1487.782 257.363, 1493.104 259.500, 1503 259.500 C 1510.290 259.500, 1512.314 259.100, 1517.214 256.694 C 1524.217 253.255, 1530.184 246.691, 1533.165 239.147 C 1534.937 234.661, 1535.402 231.444, 1535.425 223.500 C 1535.451 214.277, 1535.207 212.995, 1532.287 207 C 1528.764 199.769, 1527.145 197.697, 1521.931 193.744 C 1515.383 188.780, 1505.483 186.536, 1496.723 188.028" stroke="none" fill="#ffffff" fill-rule="evenodd"/><path d="M 135.923 259.120 C 80.141 313.636, 34.372 358.570, 34.216 358.972 C 33.933 359.701, 45.465 367.441, 54 372.249 C 67.724 379.982, 91.933 388.261, 110.500 391.572 C 122.925 393.788, 150.379 394.570, 162.654 393.058 C 209.158 387.329, 247.373 366.899, 271.502 334.869 C 293.436 305.751, 300.685 270.706, 291.925 236.135 C 286.959 216.538, 276.818 197.884, 261.967 181.032 C 255.316 173.483, 240.128 160, 238.277 160 C 237.765 160, 191.706 204.604, 135.923 259.120" stroke="none" fill="#fed84e" fill-rule="evenodd"/><path d="M 179.768 15.043 C 124.463 20.820, 77.897 49.765, 56.765 91.500 C 33.001 138.435, 43.086 192.957, 82.953 233.070 C 87.104 237.246, 92.912 242.547, 95.861 244.848 L 101.222 249.033 108.361 242.315 C 113.795 237.202, 254.232 100.195, 299.410 55.933 L 306.319 49.163 297.910 43.701 C 269.913 25.517, 238.065 15.766, 202.883 14.605 C 194.972 14.344, 184.571 14.541, 179.768 15.043 M 1535 149.637 L 1535 178.274 1530.133 173.721 C 1527.456 171.217, 1522.971 168.005, 1520.166 166.584 C 1512.621 162.761, 1512.472 163.491, 1519.972 167.533 C 1523.532 169.451, 1528.274 172.816, 1530.510 175.010 C 1532.746 177.205, 1534.896 179, 1535.288 179 C 1535.680 179, 1536 166.175, 1536 150.500 L 1536 122 1550.994 122 L 1565.988 122 1566.250 203.750 L 1566.512 285.500 1566.756 203.250 L 1567 121 1551 121 L 1535 121 1535 149.637 M 548.797 132.745 C 553.361 132.930, 560.561 132.929, 564.797 132.742 C 569.034 132.555, 565.300 132.404, 556.500 132.405 C 547.700 132.406, 544.234 132.559, 548.797 132.745 M 994 147 L 994 162 987 162 L 980 162 980.217 175.250 L 980.435 188.500 980.747 175.750 L 981.060 163 988.030 163 L 995 163 995 148.025 L 995 133.051 1010.750 132.748 L 1026.500 132.445 1010.250 132.223 L 994 132 994 147 M 688.250 160.631 C 689.822 161.094, 690 162.766, 690 177.033 L 690 192.919 681.750 193.278 L 673.500 193.637 682 193.569 L 690.500 193.500 690.500 177.014 C 690.500 161.263, 690.411 160.518, 688.500 160.321 C 686.946 160.161, 686.890 160.230, 688.250 160.631 M 526.217 175.250 L 526.435 188.500 526.747 175.793 L 527.059 163.086 534.280 162.742 L 541.500 162.397 533.750 162.199 L 526 162 526.217 175.250 M 585.220 162.747 L 598.941 163.056 599.253 175.778 L 599.565 188.500 599.783 175.250 L 600 162 585.750 162.219 L 571.500 162.439 585.220 162.747 M 621.459 163.250 C 621.196 163.938, 621.102 191.725, 621.249 225 L 621.516 285.500 621.758 224.250 L 622 163 637 163 L 652 163 652 172.670 L 652 182.341 657.523 176.238 C 663.494 169.640, 667.505 166.784, 674.813 163.926 C 677.391 162.918, 678.825 162.077, 678 162.057 C 673.338 161.942, 661.244 169.901, 655.939 176.577 L 653 180.275 653 171.138 L 653 162 637.469 162 C 625.965 162, 621.813 162.324, 621.459 163.250 M 709.456 163.255 C 709.191 163.946, 709.098 180.483, 709.250 200.005 L 709.526 235.500 709.763 199.250 L 710 163 724.987 163 L 739.974 163 740.250 198.250 L 740.526 233.500 740.763 197.750 L 741 162 725.469 162 C 713.931 162, 709.813 162.323, 709.456 163.255 M 795.237 198.750 L 795.474 235.500 795.750 199.250 L 796.025 163 811.005 163 L 825.985 163 826.250 224.250 L 826.516 285.500 826.758 223.750 L 827 162 811 162 L 795 162 795.237 198.750 M 1039.220 162.747 L 1052.941 163.056 1053.253 175.778 L 1053.565 188.500 1053.783 175.250 L 1054 162 1039.750 162.219 L 1025.500 162.439 1039.220 162.747 M 1074.238 202.250 L 1074.476 242.500 1074.750 202.750 L 1075.023 163 1089.999 163 L 1104.976 163 1105.250 200.250 L 1105.525 237.500 1105.763 199.750 L 1106 162 1090 162 L 1074 162 1074.238 202.250 M 1175.491 162.736 L 1190.985 163.051 1191.254 223.775 L 1191.523 284.500 1191.512 223.500 L 1191.500 162.500 1175.749 162.461 L 1159.998 162.421 1175.491 162.736 M 1221.242 223.750 L 1221.484 285.500 1221.750 224.250 L 1222.015 163 1237.008 163 L 1252 163 1252.032 172.750 L 1252.063 182.500 1254.231 179.500 C 1257.942 174.363, 1264.271 168.925, 1270 165.951 C 1273.025 164.381, 1275.148 163.075, 1274.717 163.048 C 1272.281 162.899, 1262.861 168.989, 1258.296 173.665 L 1253 179.089 1253 170.545 L 1253 162 1237 162 L 1221 162 1221.242 223.750 M 934.443 165.491 C 947.536 170.873, 956.285 179.237, 962.695 192.500 C 964.556 196.350, 965.785 198.375, 965.426 197 C 963.950 191.348, 958.131 182.131, 952.425 176.407 C 946.573 170.537, 933.955 162.967, 930.116 163.024 C 929.227 163.037, 931.175 164.147, 934.443 165.491 M 1388.158 165.375 C 1399.568 170.068, 1407.983 176.600, 1413.761 185.250 C 1416.800 189.800, 1417.807 190.203, 1415.307 185.868 C 1411.655 179.537, 1402.150 171.199, 1393.848 167.044 C 1389.404 164.820, 1385.033 163.011, 1384.134 163.024 C 1383.235 163.037, 1385.046 164.095, 1388.158 165.375 M 1470.208 166.054 C 1463.716 169.298, 1455.472 176.124, 1451.775 181.316 C 1450.545 183.043, 1452.680 181.271, 1456.519 177.377 C 1461.601 172.224, 1465.541 169.309, 1471 166.665 C 1475.125 164.668, 1478.009 163.026, 1477.410 163.017 C 1476.810 163.008, 1473.569 164.374, 1470.208 166.054 M 877.107 168.750 C 873.616 170.813, 868.325 175.129, 865.348 178.342 C 860.229 183.867, 853.998 193.318, 854.036 195.500 C 854.046 196.050, 855.504 193.805, 857.277 190.510 C 861.450 182.755, 871.892 172.294, 879.500 168.246 C 882.800 166.490, 885.040 165.041, 884.477 165.027 C 883.915 165.012, 880.598 166.688, 877.107 168.750 M 491.513 169.383 C 497.887 173.707, 500.224 176.272, 503.948 183.029 C 505.607 186.038, 506.972 188.145, 506.982 187.710 C 507.020 186.045, 502.850 178.899, 499.839 175.469 C 496.731 171.929, 488.900 166, 487.333 166 C 486.890 166, 488.771 167.522, 491.513 169.383 M 426.400 169.864 C 421.807 173.238, 418.909 176.369, 416.556 180.500 C 414.879 183.445, 414.881 183.454, 416.641 181 C 419.083 177.595, 425.948 170.801, 429 168.769 C 430.375 167.854, 431.230 167.081, 430.900 167.052 C 430.570 167.024, 428.545 168.289, 426.400 169.864 M 1321.266 176.388 C 1317.541 179.902, 1313.454 184.627, 1312.183 186.888 C 1309.080 192.409, 1310.127 192.165, 1313.384 186.608 C 1314.800 184.192, 1318.957 179.467, 1322.624 176.108 C 1326.290 172.749, 1329.008 170, 1328.663 170 C 1328.319 170, 1324.990 172.875, 1321.266 176.388 M 898 188.590 C 893.470 190.547, 887.362 196.470, 884.846 201.347 C 883.754 203.463, 883.046 205.380, 883.274 205.607 C 883.501 205.834, 884.505 204.206, 885.505 201.989 C 888.708 194.886, 895.628 189.674, 904.500 187.681 C 906.095 187.323, 905.994 187.216, 904 187.155 C 902.625 187.113, 899.925 187.759, 898 188.590 M 994.446 219.500 C 994.447 237.100, 994.583 244.159, 994.749 235.187 C 994.914 226.215, 994.914 211.815, 994.748 203.187 C 994.581 194.559, 994.446 201.900, 994.446 219.500 M 1489.422 190.477 C 1486.687 191.840, 1482.662 194.860, 1480.475 197.188 L 1476.500 201.422 1481.106 197.323 C 1486.364 192.644, 1488.858 191.168, 1494.500 189.392 C 1496.774 188.677, 1497.614 188.105, 1496.446 188.067 C 1495.317 188.030, 1492.156 189.115, 1489.422 190.477 M 924.825 191.988 C 927.099 193.635, 930.062 197.113, 931.428 199.738 C 932.791 202.357, 933.928 204.145, 933.953 203.710 C 934.156 200.270, 924.709 189, 921.622 189 C 921.115 189, 922.556 190.345, 924.825 191.988 M 442.039 199.327 C 441.951 203.445, 451.879 209.579, 461.709 211.481 C 463.244 211.778, 461.563 210.955, 457.973 209.652 C 448.004 206.032, 444.975 204.160, 443.464 200.685 C 442.584 198.663, 442.064 198.167, 442.039 199.327 M 1392 210 C 1392 211.953, 1391.333 212, 1363.583 212 C 1341.786 212, 1335.049 211.709, 1334.662 210.750 C 1334.361 210.003, 1334.126 210.205, 1334.079 211.250 C 1334.005 212.879, 1336.041 213, 1363.500 213 L 1393 213 1393 210.500 C 1393 209.125, 1392.775 208, 1392.500 208 C 1392.225 208, 1392 208.900, 1392 210 M 414 210.654 C 414 213.468, 421.892 221.921, 427.750 225.380 C 430.672 227.105, 428.645 225.084, 424.387 222.026 C 421.850 220.204, 418.475 216.665, 416.887 214.161 C 415.299 211.657, 414 210.079, 414 210.654 M 1439.382 223.500 C 1439.384 230.100, 1439.546 232.670, 1439.741 229.211 C 1439.937 225.752, 1439.936 220.352, 1439.738 217.211 C 1439.540 214.070, 1439.380 216.900, 1439.382 223.500 M 488.816 219.940 C 497.474 224.048, 502.566 228.315, 506.041 234.374 C 507.658 237.193, 508.985 239.026, 508.991 238.446 C 509.010 236.286, 503.171 228.304, 499.401 225.337 C 495.121 221.968, 488.895 218.623, 485 217.600 C 483.625 217.239, 485.342 218.292, 488.816 219.940 M 1252.450 251 C 1252.450 269.975, 1252.584 277.738, 1252.748 268.250 C 1252.913 258.762, 1252.913 243.238, 1252.748 233.750 C 1252.584 224.262, 1252.450 232.025, 1252.450 251 M 652.448 252 C 652.448 270.425, 652.583 277.962, 652.748 268.750 C 652.913 259.538, 652.913 244.463, 652.748 235.250 C 652.583 226.037, 652.448 233.575, 652.448 252 M 1106.490 240.931 C 1107.339 246.403, 1111.740 252.879, 1116.783 256.078 C 1119.318 257.685, 1121.866 258.996, 1122.446 258.991 C 1123.026 258.985, 1121.250 257.670, 1118.500 256.068 C 1113.042 252.888, 1109.611 248.485, 1107.391 241.810 C 1106.128 238.012, 1106.021 237.908, 1106.490 240.931 M 1530.801 242.291 C 1528.320 247.494, 1524.119 251.890, 1518.612 255.049 C 1515.800 256.662, 1513.974 257.985, 1514.554 257.991 C 1516.480 258.008, 1524.498 252.385, 1527.306 249.048 C 1530.317 245.469, 1533.383 240.050, 1532.753 239.420 C 1532.536 239.203, 1531.658 240.495, 1530.801 242.291 M 1157.591 242.508 C 1156.421 247.194, 1153.079 251.930, 1148.709 255.096 C 1146.504 256.693, 1145.136 258, 1145.670 258 C 1149.436 258, 1159.904 244.212, 1158.755 240.765 C 1158.526 240.078, 1158.002 240.862, 1157.591 242.508 M 933.652 243.750 C 933.395 244.162, 938.431 244.382, 944.843 244.239 C 965.643 243.773, 967.862 243.382, 950.809 243.189 C 941.629 243.085, 933.908 243.338, 933.652 243.750 M 409.150 249.250 C 409.289 252.275, 409.329 252.310, 409.716 249.750 L 410.133 247 424.983 247 C 435.928 247, 439.966 247.329, 440.338 248.250 C 440.639 248.997, 440.874 248.795, 440.921 247.750 C 440.993 246.153, 439.602 246, 425 246 L 409 246 409.150 249.250 M 931.570 247.779 C 930.557 250.970, 924.024 256.814, 919.625 258.464 C 916.652 259.580, 916.338 259.852, 918.500 259.441 C 920.150 259.127, 922.970 257.886, 924.766 256.685 C 928.230 254.368, 933.678 247.345, 932.740 246.407 C 932.433 246.100, 931.907 246.718, 931.570 247.779 M 1387.653 246.750 C 1387.397 247.162, 1394.792 247.367, 1404.086 247.204 L 1420.985 246.909 1420.041 249.392 C 1417.309 256.577, 1413.040 263.202, 1407.111 269.457 C 1403.475 273.292, 1402.278 274.918, 1404.451 273.069 C 1411.912 266.722, 1418.854 256.579, 1421.437 248.250 L 1422.135 246 1405.126 246 C 1395.772 246, 1387.909 246.338, 1387.653 246.750 M 788.699 250.510 C 785.111 255.007, 781.945 257.052, 776.151 258.612 C 773.555 259.311, 772.508 259.895, 773.782 259.933 C 778.897 260.084, 788.220 254.070, 791.117 248.750 C 792.578 246.068, 791.780 246.649, 788.699 250.510 M 961.092 257.616 C 957.805 263.956, 950.514 272.422, 944.500 276.885 C 942.068 278.689, 941.973 278.881, 944 277.900 C 948.350 275.793, 958.372 264.710, 961.846 258.164 C 963.687 254.696, 965.027 251.694, 964.825 251.492 C 964.623 251.290, 962.943 254.046, 961.092 257.616 M 712.024 253.116 C 711.969 256.853, 719.169 268.870, 724.464 273.877 C 729.664 278.796, 740.771 285.079, 744 284.929 C 744.825 284.890, 743.900 284.270, 741.945 283.550 C 727.944 278.391, 719.963 270.743, 714.354 257.108 C 713.086 254.024, 712.037 252.227, 712.024 253.116 M 1312.108 259.978 C 1313.337 262.166, 1316.629 266.295, 1319.422 269.153 C 1324.343 274.190, 1335.240 282, 1337.346 282 C 1337.916 282, 1335.709 280.399, 1332.441 278.441 C 1325.274 274.149, 1316.765 266.050, 1313.328 260.250 C 1310.143 254.874, 1309.110 254.644, 1312.108 259.978 M 858.693 261.148 C 861.793 266.548, 872.369 276.385, 878.711 279.765 C 882.049 281.544, 885.167 282.990, 885.640 282.977 C 886.113 282.965, 883.790 281.494, 880.479 279.708 C 872.060 275.169, 866.800 270.704, 861.826 263.875 C 857.078 257.354, 855.956 256.377, 858.693 261.148 M 412 259.737 C 412 261.690, 420.027 271.777, 423.684 274.418 L 427.500 277.174 423.293 273.337 C 420.979 271.227, 417.491 267.092, 415.543 264.150 C 413.594 261.207, 412 259.221, 412 259.737 M 542.047 260.090 C 541.952 263.296, 548.188 273.980, 551.810 276.819 C 556.427 280.437, 559.996 282.338, 560.752 281.581 C 561.072 281.261, 560.885 281, 560.338 281 C 559.791 281, 557.259 279.619, 554.711 277.932 C 549.757 274.651, 546.860 270.689, 543.926 263.187 C 542.918 260.609, 542.073 259.216, 542.047 260.090 M 599.392 272 C 599.392 279.425, 599.549 282.462, 599.742 278.750 C 599.934 275.038, 599.934 268.962, 599.742 265.250 C 599.549 261.538, 599.392 264.575, 599.392 272 M 1053.392 272 C 1053.392 279.425, 1053.549 282.462, 1053.742 278.750 C 1053.934 275.038, 1053.934 268.962, 1053.742 265.250 C 1053.549 261.538, 1053.392 264.575, 1053.392 272 M 1079.009 259.636 C 1078.992 261.792, 1087.124 272.930, 1090.807 275.793 C 1095.769 279.651, 1098.414 280.947, 1094 277.357 C 1088.587 272.956, 1085.101 268.955, 1081.928 263.500 C 1080.328 260.750, 1079.015 259.011, 1079.009 259.636 M 1451.684 265.531 C 1454.522 269.549, 1463.004 277.432, 1466.062 278.893 L 1468.500 280.058 1466 278.353 C 1464.625 277.416, 1460.360 273.465, 1456.522 269.574 C 1452.684 265.684, 1450.507 263.864, 1451.684 265.531 M 998 266.726 C 998 270.785, 1012.299 283.044, 1016.956 282.978 C 1017.805 282.966, 1016.555 282.073, 1014.177 280.994 C 1007.545 277.985, 1004.032 275.119, 1000.881 270.151 C 999.296 267.653, 998 266.112, 998 266.726 M 1528.245 273.702 C 1524.804 277.208, 1522.779 279.644, 1523.745 279.115 C 1524.710 278.586, 1527.525 276.072, 1530 273.527 L 1534.500 268.899 1535.064 277.200 L 1535.627 285.500 1535.814 276.250 C 1535.916 271.163, 1535.662 267.074, 1535.250 267.164 C 1534.838 267.254, 1531.685 270.196, 1528.245 273.702 M 789.551 274.678 C 786.280 277.761, 784.480 279.806, 785.551 279.224 C 786.623 278.641, 789.075 276.523, 791 274.518 L 794.500 270.871 795.070 278.185 L 795.640 285.500 795.820 277.250 C 795.919 272.712, 795.888 269.016, 795.750 269.036 C 795.612 269.057, 792.823 271.595, 789.551 274.678 M 1156.217 273.081 C 1154.412 275.135, 1150.052 278.310, 1146.529 280.137 C 1143.007 281.963, 1140.290 283.623, 1140.492 283.825 C 1141.373 284.707, 1153.066 277.517, 1156.546 273.953 C 1158.649 271.799, 1160.174 269.881, 1159.935 269.691 C 1159.696 269.502, 1158.023 271.027, 1156.217 273.081" stroke="none" fill="#fb940c" fill-rule="evenodd"/></svg>