<svg xmlns="http://www.w3.org/2000/svg" width="2442" height="620" viewBox="0 0 1628 413" version="1.1"><path d="M 135.923 259.120 C 80.141 313.636, 34.372 358.570, 34.216 358.972 C 33.933 359.701, 45.465 367.441, 54 372.249 C 67.724 379.982, 91.933 388.261, 110.500 391.572 C 122.925 393.788, 150.379 394.570, 162.654 393.058 C 209.158 387.329, 247.373 366.899, 271.502 334.869 C 293.436 305.751, 300.685 270.706, 291.925 236.135 C 286.959 216.538, 276.818 197.884, 261.967 181.032 C 255.316 173.483, 240.128 160, 238.277 160 C 237.765 160, 191.706 204.604, 135.923 259.120" stroke="none" fill="#fed74f" fill-rule="evenodd"/><path d="M 1535 149.637 L 1535 178.274 1529.947 173.547 C 1520.276 164.501, 1504.187 159.154, 1490.617 160.477 C 1470.184 162.468, 1455.057 172.935, 1445.971 191.371 C 1441.002 201.452, 1439.035 210.565, 1439.035 223.500 C 1439.035 243.688, 1444.975 259.211, 1457.409 271.519 C 1468.464 282.462, 1479.477 286.987, 1495 286.964 C 1509.835 286.942, 1519.693 283.258, 1529.250 274.166 L 1535 268.696 1535 276.848 L 1535 285 1551 285 L 1567 285 1567 203 L 1567 121 1551 121 L 1535 121 1535 149.637 M 541 147 L 541 162 533.500 162 L 526 162 526 175 L 526 188 533.453 188 L 540.907 188 541.203 224.274 L 541.500 260.548 544.814 267.277 C 548.845 275.460, 554.483 280.142, 563.758 283.007 C 568.979 284.620, 573.053 285, 585.105 285 L 600 285 600 272.151 L 600 259.301 589.544 258.709 C 583.793 258.384, 578.178 257.630, 577.067 257.036 C 572.743 254.722, 572.515 252.988, 572.176 219.750 L 571.851 188 585.926 188 L 600 188 600 175 L 600 162 586 162 L 572 162 572 147 L 572 132 556.500 132 L 541 132 541 147 M 994 147 L 994 162 987 162 L 980 162 980 175 L 980 188 986.912 188 L 993.823 188 994.242 222.750 C 994.635 255.445, 994.790 257.858, 996.855 263.553 C 999.518 270.895, 1003.671 276.137, 1009.560 279.588 C 1016.793 283.827, 1023.107 284.975, 1039.250 284.988 L 1054 285 1054 272.151 L 1054 259.301 1043.544 258.709 C 1025.463 257.685, 1026 258.914, 1026 218.532 L 1026 188 1040 188 L 1054 188 1054 175 L 1054 162 1040 162 L 1026 162 1026 147 L 1026 132 1010 132 L 994 132 994 147 M 450.500 160.630 C 434.427 163.125, 421.553 171.056, 415.488 182.199 C 413.174 186.451, 412.534 189.056, 412.189 195.621 C 411.609 206.667, 413.662 212.757, 420.153 219.249 C 426.288 225.383, 433.697 228.834, 451.822 234 C 477.519 241.324, 480.455 242.968, 480.455 250.038 C 480.455 259.311, 467.258 264.699, 453.740 260.945 C 448.856 259.588, 442.198 253.240, 441.382 249.162 L 440.750 246 424.739 246 L 408.728 246 409.349 250.530 C 410.918 261.975, 420.050 273.626, 432.638 280.240 C 441.866 285.090, 450.212 286.970, 462.500 286.970 C 484.467 286.970, 500.079 279.308, 507.707 264.784 C 510.140 260.151, 510.483 258.391, 510.491 250.500 C 510.499 242.648, 510.141 240.770, 507.689 235.776 C 502.351 224.905, 494.651 220.182, 471.267 213.433 C 450.524 207.446, 445.345 205.069, 443.518 200.697 C 439.907 192.055, 446.406 186, 459.293 186 C 470.499 186, 476.720 190.095, 479.421 199.250 C 479.883 200.816, 481.516 201, 494.969 201 C 506.575 201, 510 200.706, 510 199.710 C 510 199.001, 509.310 195.772, 508.467 192.535 C 504.429 177.030, 494.033 166.895, 477.500 162.342 C 472.238 160.893, 455.601 159.838, 450.500 160.630 M 682.043 161.128 C 672.065 162.801, 662.289 168.587, 655.939 176.577 L 653 180.275 653 171.112 L 653 161.949 637.250 162.225 L 621.500 162.500 621.242 223.750 L 620.985 285 636.925 285 L 652.866 285 653.183 248.750 C 653.488 213.911, 653.585 212.315, 655.690 207.757 C 660.080 198.253, 665.974 195.013, 680.500 194.117 L 690.500 193.500 690.500 177.014 C 690.500 158.430, 691.126 159.605, 682.043 161.128 M 898.247 161.042 C 884.624 163.487, 873.647 169.373, 864.818 178.968 C 853.915 190.816, 849.049 204.711, 849.017 224.090 C 848.987 242.823, 854.838 258.583, 866.054 269.974 C 877.179 281.273, 888.608 286.006, 906.500 286.725 C 926.748 287.538, 940.064 282.927, 952.108 270.933 C 958.822 264.248, 965.271 253.282, 966.624 246.250 L 967.250 243 950.645 243 L 934.041 243 932.101 246.803 C 927.754 255.322, 919.725 260, 909.448 260 C 891.960 260, 881.064 246.127, 881.015 223.799 C 880.966 201.682, 891.543 187.747, 908.500 187.589 C 919.596 187.486, 927.355 191.561, 931.224 199.524 L 933.399 204 950.324 204 L 967.250 204 966.624 200.750 C 966.280 198.963, 964.367 194.172, 962.373 190.105 C 955.835 176.770, 942.914 166.338, 928.253 162.558 C 920.500 160.559, 905.236 159.787, 898.247 161.042 M 1282 161.142 C 1273.465 162.552, 1264.597 167.211, 1258.435 173.523 L 1253 179.089 1253 170.545 L 1253 162 1237 162 L 1221 162 1221 223.500 L 1221 285 1237 285 L 1253 285 1253 250.816 C 1253 221.819, 1253.255 215.721, 1254.683 210.632 C 1257.908 199.138, 1266.402 194, 1282.182 194 L 1290 194 1290 177 C 1290 164.004, 1289.706 160.028, 1288.750 160.117 C 1288.063 160.181, 1285.025 160.643, 1282 161.142 M 1352.870 161.005 C 1328.844 164.816, 1311.031 181.053, 1304.932 204.700 C 1302.411 214.474, 1302.187 232.601, 1304.476 241.500 C 1309.674 261.704, 1323.389 277.088, 1342.119 283.724 C 1351.810 287.158, 1370.215 288.085, 1379.824 285.624 C 1392.966 282.257, 1403.227 275.902, 1411.491 266.011 C 1415.033 261.771, 1419.987 252.925, 1421.437 248.250 L 1422.135 246 1405.316 246 L 1388.496 246 1384.998 250.702 C 1378.459 259.490, 1366.390 263, 1354.547 259.557 C 1344.536 256.646, 1335 244.824, 1335 235.322 L 1335 233 1379.439 233 L 1423.877 233 1424.575 228.350 C 1425.504 222.153, 1424.406 208.744, 1422.415 201.968 C 1416.633 182.297, 1401.534 167.534, 1382.057 162.508 C 1374.254 160.494, 1360.540 159.788, 1352.870 161.005 M 709.359 163.506 C 709.042 164.334, 709.004 183.121, 709.275 205.256 C 709.808 248.705, 710.105 251.354, 715.684 262.363 C 723.836 278.451, 743.347 288.463, 762.987 286.638 C 774.421 285.575, 783.280 281.744, 790.750 274.631 L 795 270.584 795 277.792 L 795 285 811 285 L 827 285 827 223.500 L 827 162 811 162 L 795 162 795 198.684 C 795 229.600, 794.743 236.285, 793.365 241.197 C 791.264 248.685, 785.690 255.183, 779.232 257.673 C 773.625 259.836, 763.264 260.037, 757.619 258.094 C 752.138 256.208, 746.639 250.867, 743.870 244.742 C 741.528 239.561, 741.496 239.045, 741.186 200.750 L 740.873 162 725.405 162 C 712.553 162, 709.840 162.255, 709.359 163.506 M 1074.008 200.750 C 1074.012 222.615, 1074.466 242.277, 1075.049 245.872 C 1077.268 259.548, 1084.549 271.851, 1094.222 278.272 C 1113.097 290.800, 1139.882 289.290, 1155.590 274.810 L 1160 270.745 1160 277.873 L 1160 285 1176.008 285 L 1192.015 285 1191.758 223.750 L 1191.500 162.500 1175.824 162.225 L 1160.147 161.950 1159.766 200.225 C 1159.346 242.291, 1159.156 243.715, 1152.973 251.216 C 1148.253 256.942, 1141.988 259.465, 1132.500 259.460 C 1125.580 259.456, 1123.797 259.069, 1119.292 256.591 C 1116.427 255.016, 1112.908 252.032, 1111.473 249.961 C 1106.297 242.492, 1106 239.745, 1106 199.341 L 1106 162 1090 162 L 1074 162 1074.008 200.750 M 1357.903 187.028 C 1346.743 188.878, 1338.005 197.367, 1335.544 208.750 L 1334.841 212 1363.548 212 L 1392.256 212 1391.576 207.750 C 1389.327 193.684, 1374.139 184.337, 1357.903 187.028 M 1494.324 189.377 C 1485.117 192.394, 1478.612 198.283, 1474.304 207.500 C 1471.805 212.848, 1471.505 214.586, 1471.543 223.500 C 1471.581 232.320, 1471.924 234.243, 1474.448 239.791 C 1476.380 244.037, 1479.044 247.668, 1482.644 250.957 C 1489.571 257.289, 1495.744 259.408, 1505.446 258.785 C 1517.664 258.001, 1526.394 251.813, 1531.886 240.046 C 1534.123 235.251, 1534.475 233.145, 1534.487 224.500 C 1534.496 217.352, 1533.977 212.999, 1532.666 209.238 C 1530.225 202.238, 1522.593 193.931, 1515.991 191.091 C 1509.581 188.334, 1499.855 187.564, 1494.324 189.377" stroke="none" fill="#040404" fill-rule="evenodd"/><path d="M 179.768 15.043 C 124.463 20.820, 77.897 49.765, 56.765 91.500 C 33.001 138.435, 43.086 192.957, 82.953 233.070 C 87.104 237.246, 92.912 242.547, 95.861 244.848 L 101.222 249.033 108.361 242.315 C 113.795 237.202, 254.232 100.195, 299.410 55.933 L 306.319 49.163 297.910 43.701 C 269.913 25.517, 238.065 15.766, 202.883 14.605 C 194.972 14.344, 184.571 14.541, 179.768 15.043" stroke="none" fill="#fbb32f" fill-rule="evenodd"/></svg>