<?xml version="1.0" standalone="no"?>
<!DOCTYPE svg PUBLIC "-//W3C//DTD SVG 20010904//EN"
 "http://www.w3.org/TR/2001/REC-SVG-20010904/DTD/svg10.dtd">
<svg version="1.0" xmlns="http://www.w3.org/2000/svg"
 width="300.000000pt" height="136.000000pt" viewBox="0 0 300.000000 136.000000"
 preserveAspectRatio="xMidYMid meet">
<metadata>
Created by potrace 1.10, written by Peter Selinger 2001-2011
</metadata>
<g transform="translate(0.000000,136.000000) scale(0.100000,-0.100000)"
fill="#000000" stroke="none">
<path d="M565 938 c-81 -29 -135 -96 -135 -171 0 -54 16 -90 54 -126 l25 -24
143 138 c79 76 144 141 146 146 2 4 -22 17 -53 28 -60 22 -131 26 -180 9z
m138 -29 c20 -5 36 -15 36 -22 -1 -7 -50 -59 -109 -115 -117 -113 -138 -121
-159 -60 -15 43 -14 74 5 115 19 38 45 59 102 79 45 16 76 17 125 3z"/>
<path d="M2540 758 c0 -33 -3 -39 -12 -30 -20 20 -72 14 -96 -11 -26 -28 -30
-92 -7 -124 20 -29 62 -38 90 -19 13 9 25 12 27 7 2 -5 12 -11 23 -13 19 -3
20 3 23 115 l3 117 -26 0 c-23 0 -25 -4 -25 -42z m-12 -70 c19 -19 15 -66 -7
-78 -27 -14 -37 -13 -55 6 -32 31 -14 84 29 84 12 0 26 -5 33 -12z"/>
<path d="M1130 760 c0 -11 -4 -20 -10 -20 -5 0 -10 -9 -10 -20 0 -11 5 -20 10
-20 6 0 10 -22 10 -48 0 -57 14 -79 55 -84 22 -2 31 2 33 15 2 11 -3 17 -16
17 -17 0 -21 8 -24 50 -3 43 0 50 17 52 11 2 21 11 23 21 3 12 -3 17 -21 17
-20 0 -24 4 -20 20 4 16 0 20 -21 20 -19 0 -26 -5 -26 -20z"/>
<path d="M1775 760 c5 -14 2 -20 -9 -20 -20 0 -21 -26 -2 -37 10 -5 16 -29 18
-68 l3 -60 38 -6 c31 -5 37 -3 37 11 0 10 -9 20 -20 23 -17 4 -20 14 -20 55 0
45 2 50 20 45 15 -4 20 0 20 16 0 14 -6 21 -20 21 -13 0 -20 7 -20 20 0 15 -7
20 -26 20 -21 0 -24 -4 -19 -20z"/>
<path d="M552 600 c-141 -137 -143 -139 -120 -153 65 -41 180 -47 244 -14 76
39 122 120 108 192 -7 40 -58 115 -77 115 -6 -1 -76 -63 -155 -140z m171 88
c7 -7 18 -26 25 -41 44 -99 -46 -207 -172 -207 -53 0 -116 16 -116 29 0 11
230 231 242 231 5 0 15 -6 21 -12z"/>
<path d="M967 722 c-33 -36 -11 -71 56 -87 15 -4 27 -11 27 -16 0 -17 -31 -22
-54 -9 -13 6 -31 10 -41 8 -16 -3 -16 -5 3 -28 15 -19 29 -25 60 -25 46 0 72
18 72 50 0 28 -15 41 -59 52 -19 5 -36 14 -39 21 -6 20 27 26 47 8 20 -18 51
-22 51 -6 0 6 -9 19 -20 30 -26 26 -81 26 -103 2z"/>
<path d="M1250 652 c0 -81 2 -88 20 -88 18 0 20 7 20 58 0 46 4 59 19 67 10 6
21 8 23 5 3 -3 8 7 10 21 4 19 1 25 -11 25 -10 0 -22 -5 -29 -12 -9 -9 -12 -9
-12 0 0 7 -9 12 -20 12 -18 0 -20 -7 -20 -88z"/>
<path d="M1370 676 c0 -79 19 -109 71 -108 19 0 49 1 67 1 l32 0 0 86 c0 84 0
85 -25 85 -24 0 -25 -2 -25 -65 0 -61 -1 -65 -26 -71 -37 -9 -47 7 -45 76 2
58 1 60 -24 60 -24 0 -25 -2 -25 -64z"/>
<path d="M1595 715 c-36 -35 -34 -88 4 -126 17 -16 40 -29 54 -29 25 0 87 43
87 61 0 15 -47 10 -60 -6 -17 -21 -47 -19 -60 4 -15 29 -12 49 11 72 19 19 22
19 45 4 14 -9 35 -15 47 -13 22 3 22 3 -5 31 -36 36 -89 37 -123 2z"/>
<path d="M1892 669 c3 -65 6 -74 30 -92 23 -17 32 -19 53 -9 16 8 33 8 49 2
l25 -9 3 90 c3 86 2 89 -19 89 -20 0 -22 -6 -25 -61 -3 -69 -22 -94 -55 -73
-13 8 -19 27 -21 73 -3 53 -5 61 -23 61 -18 0 -20 -6 -17 -71z"/>
<path d="M2100 652 c0 -81 2 -88 20 -88 18 0 20 7 20 58 0 46 4 59 19 67 10 6
21 8 23 5 3 -3 8 7 10 21 4 19 1 25 -11 25 -10 0 -22 -5 -29 -12 -9 -9 -12 -9
-12 0 0 7 -9 12 -20 12 -18 0 -20 -7 -20 -88z"/>
<path d="M2252 733 c-42 -17 -51 -113 -14 -146 39 -35 119 -25 135 18 8 18
-33 21 -50 4 -15 -15 -59 -4 -67 16 -4 12 6 15 59 15 65 0 65 0 65 28 0 53
-70 89 -128 65z m69 -33 c31 -17 22 -30 -21 -30 -41 0 -49 7 -28 28 15 15 24
15 49 2z"/>
</g>
</svg>
