<svg xmlns="http://www.w3.org/2000/svg" width="2117" height="963" viewBox="0 0 2117 963" version="1.1"><path d="M 393.923 536.120 C 338.141 590.636, 292.372 635.570, 292.216 635.972 C 291.933 636.701, 303.465 644.441, 312 649.249 C 325.724 656.982, 349.933 665.261, 368.500 668.572 C 380.925 670.788, 408.379 671.570, 420.654 670.058 C 467.158 664.329, 505.373 643.899, 529.502 611.869 C 551.436 582.751, 558.685 547.706, 549.925 513.135 C 544.959 493.538, 534.818 474.884, 519.967 458.032 C 513.316 450.483, 498.128 437, 496.277 437 C 495.765 437, 449.706 481.604, 393.923 536.120" stroke="none" fill="#fed74f" fill-rule="evenodd"/><path d="M 1793 426.637 C 1793 455.274, 1793 455.274, 1787.947 450.547 C 1778.276 441.501, 1762.187 436.154, 1748.617 437.477 C 1728.184 439.468, 1713.057 449.935, 1703.971 468.371 C 1699.002 478.452, 1697.035 487.565, 1697.035 500.500 C 1697.035 520.688, 1702.975 536.211, 1715.409 548.519 C 1726.464 559.462, 1737.477 563.987, 1753 563.964 C 1767.835 563.942, 1777.693 560.258, 1787.250 551.166 C 1793 545.696, 1793 545.696, 1793 553.848 C 1793 562, 1793 562, 1809 562 C 1825 562, 1825 562, 1825 480 C 1825 398, 1825 398, 1809 398 C 1793 398, 1793 398, 1793 426.637 M 799 424 C 799 439, 799 439, 791.500 439 C 784 439, 784 439, 784 452 C 784 465, 784 465, 791.453 465 C 798.907 465, 798.907 465, 799.203 501.274 C 799.500 537.548, 799.500 537.548, 802.814 544.277 C 806.845 552.460, 812.483 557.142, 821.758 560.007 C 826.979 561.620, 831.053 562, 843.105 562 C 858 562, 858 562, 858 549.151 C 858 536.301, 858 536.301, 847.544 535.709 C 841.793 535.384, 836.178 534.630, 835.067 534.036 C 830.743 531.722, 830.515 529.988, 830.176 496.750 C 829.851 465, 829.851 465, 843.926 465 C 858 465, 858 465, 858 452 C 858 439, 858 439, 844 439 C 830 439, 830 439, 830 424 C 830 409, 830 409, 814.500 409 C 799 409, 799 409, 799 424 M 1252 424 C 1252 439, 1252 439, 1245 439 C 1238 439, 1238 439, 1238 452 C 1238 465, 1238 465, 1244.912 465 C 1251.823 465, 1251.823 465, 1252.242 499.750 C 1252.635 532.445, 1252.790 534.858, 1254.855 540.553 C 1257.518 547.895, 1261.671 553.137, 1267.560 556.588 C 1274.793 560.827, 1281.107 561.975, 1297.250 561.988 C 1312 562, 1312 562, 1312 549.151 C 1312 536.301, 1312 536.301, 1301.544 535.709 C 1283.463 534.685, 1284 535.914, 1284 495.532 C 1284 465, 1284 465, 1298 465 C 1312 465, 1312 465, 1312 452 C 1312 439, 1312 439, 1298 439 C 1284 439, 1284 439, 1284 424 C 1284 409, 1284 409, 1268 409 C 1252 409, 1252 409, 1252 424 M 708.500 437.630 C 692.427 440.125, 679.553 448.056, 673.488 459.199 C 671.174 463.451, 670.534 466.056, 670.189 472.621 C 669.609 483.667, 671.662 489.757, 678.153 496.249 C 684.288 502.383, 691.697 505.834, 709.822 511 C 735.519 518.324, 738.455 519.968, 738.455 527.038 C 738.455 536.311, 725.258 541.699, 711.740 537.945 C 706.856 536.588, 700.198 530.240, 699.382 526.162 C 698.750 523, 698.750 523, 682.739 523 C 666.728 523, 666.728 523, 667.349 527.530 C 668.918 538.975, 678.050 550.626, 690.638 557.240 C 699.866 562.090, 708.212 563.970, 720.500 563.970 C 742.467 563.970, 758.079 556.308, 765.707 541.784 C 768.140 537.151, 768.483 535.391, 768.491 527.500 C 768.499 519.648, 768.141 517.770, 765.689 512.776 C 760.351 501.905, 752.651 497.182, 729.267 490.433 C 708.524 484.446, 703.345 482.069, 701.518 477.697 C 697.907 469.055, 704.406 463, 717.293 463 C 728.499 463, 734.720 467.095, 737.421 476.250 C 737.883 477.816, 739.516 478, 752.969 478 C 764.575 478, 768 477.706, 768 476.710 C 768 476.001, 767.310 472.772, 766.467 469.535 C 762.429 454.030, 752.033 443.895, 735.500 439.342 C 730.238 437.893, 713.601 436.838, 708.500 437.630 M 940.043 438.128 C 930.065 439.801, 920.289 445.587, 913.939 453.577 C 911 457.275, 911 457.275, 911 448.112 C 911 438.949, 911 438.949, 895.250 439.225 C 879.500 439.500, 879.500 439.500, 879.242 500.750 C 878.985 562, 878.985 562, 894.925 562 C 910.866 562, 910.866 562, 911.183 525.750 C 911.488 490.911, 911.585 489.315, 913.690 484.757 C 918.080 475.253, 923.974 472.013, 938.500 471.117 C 948.500 470.500, 948.500 470.500, 948.500 454.014 C 948.500 435.430, 949.126 436.605, 940.043 438.128 M 1156.247 438.042 C 1142.624 440.487, 1131.647 446.373, 1122.818 455.968 C 1111.915 467.816, 1107.049 481.711, 1107.017 501.090 C 1106.987 519.823, 1112.838 535.583, 1124.054 546.974 C 1135.179 558.273, 1146.608 563.006, 1164.500 563.725 C 1184.748 564.538, 1198.064 559.927, 1210.108 547.933 C 1216.822 541.248, 1223.271 530.282, 1224.624 523.250 C 1225.250 520, 1225.250 520, 1208.645 520 C 1192.041 520, 1192.041 520, 1190.101 523.803 C 1185.754 532.322, 1177.725 537, 1167.448 537 C 1149.960 537, 1139.064 523.127, 1139.015 500.799 C 1138.966 478.682, 1149.543 464.747, 1166.500 464.589 C 1177.596 464.486, 1185.355 468.561, 1189.224 476.524 C 1191.399 481, 1191.399 481, 1208.324 481 C 1225.250 481, 1225.250 481, 1224.624 477.750 C 1224.280 475.962, 1222.367 471.172, 1220.373 467.105 C 1213.835 453.770, 1200.914 443.338, 1186.253 439.558 C 1178.500 437.559, 1163.236 436.787, 1156.247 438.042 M 1540 438.142 C 1531.465 439.552, 1522.597 444.211, 1516.435 450.523 C 1511 456.089, 1511 456.089, 1511 447.545 C 1511 439, 1511 439, 1495 439 C 1479 439, 1479 439, 1479 500.500 C 1479 562, 1479 562, 1495 562 C 1511 562, 1511 562, 1511 527.816 C 1511 498.819, 1511.255 492.721, 1512.683 487.632 C 1515.908 476.138, 1524.402 471, 1540.182 471 C 1548 471, 1548 471, 1548 454 C 1548 441.004, 1547.706 437.028, 1546.750 437.117 C 1546.063 437.181, 1543.025 437.643, 1540 438.142 M 1610.870 438.005 C 1586.844 441.816, 1569.031 458.053, 1562.932 481.700 C 1560.411 491.474, 1560.187 509.601, 1562.476 518.500 C 1567.674 538.704, 1581.389 554.088, 1600.119 560.724 C 1609.810 564.158, 1628.215 565.085, 1637.824 562.624 C 1655.082 558.202, 1668.600 547.719, 1675.954 533.054 C 1681.445 522.103, 1682.572 523, 1663.316 523 C 1646.496 523, 1646.496 523, 1642.998 527.702 C 1636.459 536.490, 1624.390 540, 1612.547 536.557 C 1602.536 533.646, 1593 521.824, 1593 512.322 C 1593 510, 1593 510, 1637.439 510 C 1681.877 510, 1681.877 510, 1682.575 505.350 C 1683.504 499.153, 1682.406 485.744, 1680.415 478.968 C 1674.633 459.297, 1659.534 444.534, 1640.057 439.508 C 1632.254 437.494, 1618.540 436.788, 1610.870 438.005 M 967.359 440.506 C 967.042 441.334, 967.004 460.121, 967.275 482.256 C 967.808 525.705, 968.105 528.354, 973.684 539.363 C 981.836 555.451, 1001.347 565.463, 1020.987 563.638 C 1032.421 562.575, 1041.280 558.744, 1048.750 551.631 C 1053 547.584, 1053 547.584, 1053 554.792 C 1053 562, 1053 562, 1069 562 C 1085 562, 1085 562, 1085 500.500 C 1085 439, 1085 439, 1069 439 C 1053 439, 1053 439, 1053 475.684 C 1053 506.600, 1052.743 513.285, 1051.365 518.197 C 1049.264 525.685, 1043.690 532.183, 1037.232 534.673 C 1031.625 536.836, 1021.264 537.037, 1015.619 535.094 C 1010.138 533.208, 1004.639 527.867, 1001.870 521.742 C 999.528 516.561, 999.496 516.045, 999.186 477.750 C 998.873 439, 998.873 439, 983.405 439 C 970.553 439, 967.840 439.255, 967.359 440.506 M 1332.008 477.750 C 1332.012 499.615, 1332.466 519.277, 1333.049 522.872 C 1335.268 536.548, 1342.549 548.851, 1352.222 555.272 C 1371.097 567.800, 1397.882 566.290, 1413.590 551.810 C 1418 547.745, 1418 547.745, 1418 554.873 C 1418 562, 1418 562, 1434.008 562 C 1450.015 562, 1450.015 562, 1449.758 500.750 C 1449.500 439.500, 1449.500 439.500, 1433.824 439.225 C 1418.147 438.950, 1418.147 438.950, 1417.766 477.225 C 1417.346 519.291, 1417.156 520.715, 1410.973 528.216 C 1406.253 533.942, 1399.988 536.465, 1390.500 536.460 C 1383.580 536.456, 1381.797 536.069, 1377.292 533.591 C 1374.427 532.016, 1370.908 529.032, 1369.473 526.961 C 1364.297 519.492, 1364 516.745, 1364 476.341 C 1364 439, 1364 439, 1348 439 C 1332 439, 1332 439, 1332.008 477.750 M 1615.903 464.028 C 1604.743 465.878, 1596.005 474.367, 1593.544 485.750 C 1592.841 489, 1592.841 489, 1621.548 489 C 1650.256 489, 1650.256 489, 1649.576 484.750 C 1647.327 470.684, 1632.139 461.337, 1615.903 464.028 M 1752.324 466.377 C 1743.117 469.394, 1736.612 475.283, 1732.304 484.500 C 1729.805 489.848, 1729.505 491.586, 1729.543 500.500 C 1729.581 509.320, 1729.924 511.243, 1732.448 516.791 C 1734.380 521.037, 1737.044 524.668, 1740.644 527.957 C 1747.571 534.289, 1753.744 536.408, 1763.446 535.785 C 1775.664 535.001, 1784.394 528.813, 1789.886 517.046 C 1792.123 512.251, 1792.475 510.145, 1792.487 501.500 C 1792.496 494.352, 1791.977 489.999, 1790.666 486.238 C 1788.225 479.238, 1780.593 470.931, 1773.991 468.091 C 1767.581 465.334, 1757.855 464.564, 1752.324 466.377" stroke="none" fill="#040404" fill-rule="evenodd"/><path d="M 437.768 292.043 C 382.463 297.820, 335.897 326.765, 314.765 368.500 C 291.001 415.435, 301.086 469.957, 340.953 510.070 C 345.104 514.246, 350.912 519.547, 353.861 521.848 C 359.222 526.033, 359.222 526.033, 366.361 519.315 C 371.795 514.202, 512.232 377.195, 557.410 332.933 C 564.319 326.163, 564.319 326.163, 555.910 320.701 C 527.913 302.517, 496.065 292.766, 460.883 291.605 C 452.972 291.344, 442.571 291.541, 437.768 292.043" stroke="none" fill="#fbb32f" fill-rule="evenodd"/></svg>